HIERARCHY
ROOT Hips
{
     OFFSET 1.88212 96.90440 -13.34250
     CHANNELS 6 Xposition Yposition Zposition Zrotation Xrotation Yrotation
     JOINT Spine
     {
          OFFSET 0.00000 11.89050 0.00000
          CHANNELS 3 Zrotation Xrotation Yrotation
          JOINT Spine1
          {
               OFFSET -0.00000 25.65740 0.12766
               CHANNELS 3 Zrotation Xrotation Yrotation
               JOINT HEad
               {
                    OFFSET 0.00000 8.73416 0.01134
                    CHANNELS 3 Zrotation Xrotation Yrotation
                    End Site
                    {
                         OFFSET -0.29000 12.77420 2.51395
                    }
               }
               JOINT LeftShoulder1
               {
                    OFFSET 8.99000 -0.36225 -0.22000
                    CHANNELS 3 Zrotation Xrotation Yrotation
                    JOINT LeftArm
                    {
                         OFFSET 10.28270 -0.00338 0.32212
                         CHANNELS 3 Zrotation Xrotation Yrotation
                         JOINT LeftForeArm
                         {
                              OFFSET 32.76690 0.09914 -1.42434
                              CHANNELS 3 Zrotation Xrotation Yrotation
                              JOINT LeftHand
                              {
                                   OFFSET 27.56430 0.08536 1.02216
                                   CHANNELS 3 Zrotation Xrotation Yrotation
                                   End Site
                                   {
                                        OFFSET 16.74430 -0.60000 1.50291
                                   }
                              }
                         }
                    }
               }
               JOINT RightShoulder
               {
                    OFFSET -8.99000 -0.36225 -0.22000
                    CHANNELS 3 Zrotation Xrotation Yrotation
                    JOINT RightArm
                    {
                         OFFSET -10.28270 -0.00338 0.32212
                         CHANNELS 3 Zrotation Xrotation Yrotation
                         JOINT RightForeArm
                         {
                              OFFSET -32.89710 0.09914 -1.42434
                              CHANNELS 3 Zrotation Xrotation Yrotation
                              JOINT RightHand
                              {
                                   OFFSET -27.49210 0.08536 1.02216
                                   CHANNELS 3 Zrotation Xrotation Yrotation
                                   End Site
                                   {
                                        OFFSET -16.63120 -0.60000 1.50291
                                   }
                              }
                         }
                    }
               }
          }
     }
     JOINT LeftUpLeg
     {
          OFFSET 8.94580 -8.66707 0.10165
          CHANNELS 3 Zrotation Xrotation Yrotation
          JOINT LeftLeg
          {
               OFFSET 0.00000 -44.42270 1.37270
               CHANNELS 3 Zrotation Xrotation Yrotation
               JOINT LeftFoot
               {
                    OFFSET -0.25355 -42.09240 -1.46059
                    CHANNELS 3 Zrotation Xrotation Yrotation
                    JOINT LeftToes
                    {
                         OFFSET -0.04000 -4.41509 8.49910
                         CHANNELS 3 Zrotation Xrotation Yrotation
                         End Site
                         {
                              OFFSET 0.08000 -0.04745 9.77979
                         }
                    }
               }
          }
     }
     JOINT RightUpLeg
     {
          OFFSET -8.94580 -8.66707 0.10165
          CHANNELS 3 Zrotation Xrotation Yrotation
          JOINT RightLeg
          {
               OFFSET 0.00000 -44.42270 1.37270
               CHANNELS 3 Zrotation Xrotation Yrotation
               JOINT RightFoot
               {
                    OFFSET 0.25355 -42.09240 -1.46059
                    CHANNELS 3 Zrotation Xrotation Yrotation
                    JOINT RightToes
                    {
                         OFFSET 0.04000 -4.41509 8.49910
                         CHANNELS 3 Zrotation Xrotation Yrotation
                         End Site
                         {
                              OFFSET -0.08000 -0.13745 9.77979
                         }
                    }
               }
          }
     }
}
MOTION
Frames: 17
Frame Time: 0.01667
44.40675 75.37188 -122.87978 1.12485 -4.11472 -21.48576 -9.08350 36.18732 -1.19279 -0.03503 0.07274 0.01458 -12.62707 1.28433 17.33903 -29.06433 32.93928 14.93768 -106.81979 -55.60711 -91.29162 -40.41491 55.65998 -90.83820 3.15667 7.13400 -0.15568 -9.16154 31.83272 13.63672 69.63914 -22.36471 70.07951 29.46006 43.94140 97.05100 -4.79159 11.51236 4.08184 8.67053 -36.87831 6.26017 40.30334 41.74984 -19.80834 0.01990 -0.07185 0.06334 -33.86382 -18.62545 -4.29462 -24.36957 -38.51394 -25.01160 -50.17225 62.28677 64.47942 42.24208 0.15327 0.17141 -38.70797 -39.35192 -2.98169 
44.88139 70.87605 -123.65504 1.50473 -3.20209 -17.05642 -10.64274 41.36988 -1.92718 -0.03455 0.06260 0.00940 -13.75715 -1.14586 17.38367 -24.01306 28.91470 10.71458 -104.48312 -55.39219 -88.02575 -37.83534 55.36307 -92.98192 7.07697 5.61090 -2.27207 -3.97735 27.81590 11.89220 65.77629 -20.32627 66.57658 25.51312 41.76334 101.14078 -1.37526 7.03208 4.45081 6.56041 -46.55119 1.83856 47.94974 49.62804 -27.20422 1.90611 -0.04518 0.04691 -38.23769 -17.73274 -9.01792 -29.75733 -43.70924 -28.47316 -70.11079 68.66881 82.54900 48.22993 0.16538 0.15487 -44.89640 -44.26045 -3.17688 
45.30825 65.95183 -124.55463 1.88005 -2.56148 -13.08817 -13.18754 46.85678 -0.78632 -0.03705 0.05231 0.01171 -15.43093 -3.76603 17.08797 -19.20762 24.65168 7.22042 -102.02420 -54.76863 -85.23981 -35.75213 55.13000 -95.16945 4.35158 8.10936 -2.62329 1.01043 23.53297 10.47584 63.79835 -19.03012 64.85363 24.15340 44.25285 106.40149 -6.85894 13.26835 3.39508 3.34345 -56.68542 -2.61736 59.63516 56.64788 -39.98797 3.72449 -0.03123 0.04315 -42.40759 -19.39001 -12.01731 -36.12075 -48.62848 -31.19320 -100.00394 71.93188 111.04197 54.61994 0.18619 0.13478 -51.75615 -48.66361 -4.82840 
45.59961 60.98596 -125.53694 2.26053 -2.13831 -9.55056 -17.13706 52.32373 2.51767 -0.04018 0.04262 0.00720 -17.65577 -6.67370 16.34340 -14.22168 20.28667 4.09397 -99.91747 -54.04202 -82.93410 -34.21092 54.80018 -97.41338 6.68012 7.34076 -3.57936 5.92928 19.04295 8.91045 62.86188 -18.09809 64.26328 22.94011 45.55393 110.13929 -6.30643 11.74182 1.04177 -1.06745 -66.64433 -7.40455 75.30331 61.47063 -58.03584 5.79898 -0.02213 0.04377 -45.58823 -19.89242 -14.84828 -43.10217 -52.94296 -33.12967 -130.67641 70.39088 140.99239 61.47533 0.20045 0.10236 -58.96182 -52.81548 -6.44315 
45.81461 55.89016 -126.37761 2.66100 -1.91286 -6.38889 -23.19061 57.24664 8.59518 -0.04731 0.01774 0.00400 -18.99559 -9.03203 14.58225 -9.29354 15.82458 1.54763 -97.65305 -53.10709 -80.70344 -33.13577 54.43616 -99.83018 5.24435 8.98865 -3.26391 1.18199 16.62444 16.94645 71.59431 -25.46174 64.80350 21.58089 46.54983 113.54515 4.29831 6.01446 12.38208 -6.48069 -76.02955 -12.56816 92.76105 65.19723 -79.19012 10.01051 -0.02603 0.09122 -48.80182 -21.13804 -16.86427 -49.62191 -56.46556 -33.56449 -148.25984 64.89139 157.74115 70.40749 0.31613 0.02722 -97.16364 -58.42627 -38.42814 
45.89595 51.05514 -127.02316 3.10694 -1.87157 -3.59719 -31.95937 61.07304 17.95993 -0.04903 0.00405 0.00406 -19.46787 -10.74264 12.11391 -4.14354 11.54430 -0.66990 -95.82449 -52.05060 -78.90636 -32.61495 53.94876 -102.12900 6.51921 8.64274 -3.13554 7.77203 12.42209 13.09907 68.66817 -22.39989 67.41858 22.30088 44.37174 113.00079 -5.79987 11.91826 0.87202 -13.79242 -84.24847 -19.17060 108.83704 65.89907 -99.60727 13.98398 -0.00726 0.05425 -51.13837 -21.72396 -18.03395 -54.59844 -59.00256 -31.65531 -159.67682 59.99942 169.06154 78.87892 0.24765 -0.04855 -89.48019 -61.10513 -25.34270 
45.96099 46.75252 -127.31223 3.59852 -2.02277 -1.15387 -43.06816 62.92511 30.26940 -0.05385 -0.03234 0.00702 -18.75580 -12.82094 8.95332 1.06938 7.66148 -2.70554 -94.03908 -50.78788 -77.33953 -32.44939 53.33295 -104.11156 5.50751 9.83759 -2.34040 13.99076 8.48853 9.49061 65.70638 -19.47959 72.03523 22.97101 44.93596 114.49487 10.46291 4.28604 15.18475 4.35288 -90.00000 0.00000 122.86370 66.82627 -118.74271 19.77427 0.01611 0.05544 -53.32910 -22.34662 -18.18316 -57.24502 -60.37481 -26.91949 -167.28510 56.01594 177.22743 87.37104 0.21491 -0.08235 -103.11709 -63.11317 -34.19856 
45.94679 43.19986 -127.29556 4.12713 -2.33761 0.95529 -52.28003 63.23581 40.84127 0.04691 -0.04809 -0.04147 -18.17307 -15.28101 5.79499 4.93070 4.59732 -4.14347 -92.62003 -49.46115 -76.39107 -32.59398 52.60747 -105.65882 5.89418 9.69372 -1.80166 18.35337 5.33165 6.80282 64.04062 -18.26304 74.58605 23.65717 45.03596 116.06731 4.25200 7.04734 -1.46364 151.61806 -83.97988 148.41658 132.18787 67.26130 -133.05185 24.92813 0.01237 0.00276 -54.90969 -22.58139 -17.83469 -57.32438 -60.37918 -19.60375 -172.77806 53.43724 183.66364 95.65491 0.18189 -0.11083 -105.28449 -65.02426 -31.31998 
46.11343 40.61350 -126.91492 4.65873 -2.78999 2.76810 -58.60284 62.59874 48.58914 0.05046 -0.05401 -0.05022 -17.43464 -17.97496 2.69323 0.67280 -6.69325 -1.78880 -80.30817 -42.90437 -69.13537 -31.63024 49.67355 -106.92089 14.32311 19.60698 -11.39649 16.09830 -3.32984 12.16139 67.86578 -22.64414 70.80502 26.77874 45.34234 114.02734 3.41575 6.41374 6.37737 143.18384 -80.70498 141.17763 138.97545 68.26541 -144.14455 29.75618 0.00076 -0.01804 -56.07082 -22.19329 -17.03863 -56.10471 -58.79248 -11.40649 -178.70633 52.09909 190.39461 90.38629 -0.09423 0.05211 -100.53074 -66.55992 -33.49040 
46.37670 38.91695 -126.36218 5.17936 -3.35334 4.32884 -62.20702 61.49715 53.60460 0.04172 -0.04323 -0.04349 -16.52139 -20.90343 -0.34985 3.01330 -6.97334 -3.10848 -87.76083 -40.40813 -79.28782 -33.49336 49.11990 -102.19085 2.28955 7.76976 1.90063 19.32524 -4.13361 9.05385 67.67604 -21.99678 74.11684 28.30283 46.02840 114.17985 -0.66565 8.25389 -3.38959 134.63376 -78.89108 133.76123 145.24692 69.73654 -153.81113 34.24214 -0.00269 -0.01884 -56.87553 -21.93572 -16.30974 -54.54296 -55.90731 -3.66965 -182.75284 51.93726 195.19870 85.36836 -0.10801 0.05127 -92.84719 -68.24878 -32.55989 
47.13873 38.30307 -125.60443 5.66641 -4.01359 5.62369 -61.39127 59.67702 54.02641 0.05255 -0.13180 -0.07007 -15.28028 -22.87579 -2.46723 4.42373 -5.62839 -3.99603 -94.42601 -36.55727 -89.43562 -36.89434 49.10876 -94.51905 18.77047 19.24209 -22.17410 21.89703 -3.34999 6.48515 70.15909 -22.60141 80.15225 27.88221 48.00663 116.84181 -0.28871 17.27918 12.35108 124.70645 -78.29797 124.96642 155.39525 70.32819 -166.39169 39.35034 0.04142 0.03687 -57.72129 -22.95228 -15.96596 -53.24924 -52.07898 2.85167 -186.63687 54.04180 198.09558 80.24448 -0.03895 0.10145 -82.25495 -68.53104 -28.46724 
48.27234 38.31581 -124.78436 6.10990 -4.73996 6.66741 -57.41162 57.53948 50.88748 0.06689 -0.10448 -0.07416 -13.77941 -24.38374 -3.77894 5.31532 -3.01424 -4.79568 -98.17430 -34.13998 -94.74962 -38.72300 49.53297 -90.33736 6.87469 16.34839 -17.87603 23.89351 -1.17919 4.59244 74.81473 -23.88265 87.81304 33.16015 50.76002 112.03979 -2.28533 11.49338 -5.40446 112.58327 -78.53442 113.96729 163.78899 71.14140 -176.23697 43.76969 0.04292 0.01372 -58.45917 -23.95328 -15.60385 -52.53013 -47.76565 7.81943 -191.28435 57.43815 200.58298 74.63084 -0.00743 0.15449 -69.32896 -67.74847 -21.68503 
50.16372 39.21957 -123.82520 6.46700 -5.51777 7.40826 -51.48708 55.16806 45.34142 0.07438 -0.07288 -0.07418 -12.06231 -25.57994 -4.33975 5.92479 0.22934 -5.29666 -100.78957 -33.11586 -97.56635 -38.00051 51.17561 -94.36457 12.89965 16.15295 -10.62840 28.54342 -8.97737 6.06147 69.80154 -24.03039 79.46043 36.65816 52.56504 109.30235 -4.83071 29.37980 15.26374 96.20902 -79.22768 98.77583 172.47734 70.76182 -185.02332 48.19989 0.06529 0.06626 -59.51316 -26.21525 -15.96460 -52.38678 -43.23792 11.31752 -197.69635 62.52060 204.12935 62.25344 0.04366 0.45659 -50.27710 -65.08926 -15.20069 
52.49657 40.50803 -122.84290 6.70347 -6.31119 7.83301 -44.59760 52.47935 38.30325 0.07437 -0.04083 -0.07080 -10.04190 -26.60263 -4.25390 9.05510 -6.08427 -10.22160 -101.06132 -39.91272 -88.59150 -37.74672 52.18321 -96.71029 6.30958 13.23009 -5.73436 28.10616 -4.01863 4.61666 72.17983 -24.79402 82.88084 31.61672 51.68745 113.45660 2.10316 18.97143 -1.15266 74.72815 -79.56921 78.52686 180.17792 71.17606 -191.91455 52.21946 0.06526 0.04285 -60.26722 -28.13425 -16.00219 -52.66456 -38.75009 13.54502 -206.16469 67.82225 210.15926 49.69869 0.02382 0.42546 -33.45765 -62.04199 -10.77483 
55.58873 42.54879 -121.72324 6.74738 -7.05373 7.87260 -37.42632 49.39826 30.43705 0.06942 -0.01244 -0.06811 -7.63749 -27.56742 -3.56416 8.00006 -0.97752 -9.21375 -102.85448 -39.75274 -90.80968 -37.99065 52.52132 -97.66637 9.69047 13.30960 -3.55231 27.45018 0.94633 3.72991 76.78793 -27.51396 87.30360 28.07027 51.20181 116.10777 -2.99640 14.10566 7.09850 50.53481 -78.72276 55.61087 188.16440 72.06785 -198.23515 56.00706 0.06016 0.04041 -61.40586 -29.96857 -16.32470 -53.11713 -34.26738 14.73998 -219.83206 73.33302 221.84695 37.07710 0.02533 0.41712 -17.94893 -57.12449 -8.16824 
59.03757 44.82615 -120.58354 5.49181 -7.63202 5.69074 -30.70356 44.87665 24.14330 0.06335 0.01065 -0.05953 -4.71433 -28.26912 -2.37210 6.08675 3.92181 -7.55032 -104.23685 -40.00473 -92.53605 -38.53643 52.51484 -97.59146 -6.97672 7.10441 -14.75433 31.13192 -4.22068 0.03637 70.35562 -22.51355 79.90759 26.27832 51.20237 116.78724 -0.11593 6.55342 -1.02317 37.05416 -75.54561 42.58015 196.57759 73.14513 -204.36630 59.51849 0.06250 0.04270 -62.49597 -32.08485 -16.67996 -51.98091 -31.34106 16.04945 -246.47780 77.90052 246.89398 24.37773 0.01862 0.45077 -4.30105 -51.55746 -7.12665 
63.06474 47.73139 -119.31383 3.23576 -7.79408 1.62485 -24.41770 39.48543 19.32171 0.05315 0.02521 -0.05560 -1.12672 -28.27236 -0.70188 9.00546 1.68023 -12.81910 -108.58251 -47.01117 -92.25909 -40.78305 53.36948 -96.96033 5.28788 7.74226 0.10841 28.67625 1.78756 0.92235 74.84189 -27.22265 83.98784 24.86604 50.34334 116.19933 -6.87079 20.40226 2.47257 32.03206 -71.29053 37.64848 205.85771 74.43026 -210.88530 62.72301 0.06666 0.04324 -63.49373 -34.40842 -16.92639 -49.69142 -29.70566 17.25273 -295.95770 77.62987 294.67505 29.12986 -0.09839 -0.16814 -0.20569 -29.15090 -4.71407 
